<svg width="170" height="170" viewBox="0 0 170 170" fill="none" xmlns="http://www.w3.org/2000/svg">
<path d="M46.1984 144.018C59.1624 154.285 68.6984 159.018 85.1983 160.518C91.5295 161.094 95.1891 159.593 101.198 157.518C106.564 155.666 109.492 154.192 114.198 151.018C120.495 146.771 123.105 143.152 128.198 137.518C133.987 131.115 137.044 127.287 141.698 120.018C146.22 112.957 149.076 108.982 151.698 101.018C154.895 91.3098 154.909 85.2368 154.698 75.018C154.519 66.3488 154.578 61.197 151.698 53.018C148.102 42.8012 143.935 37.5979 136.198 30.018C128.848 22.8171 123.69 19.4912 114.198 15.518C103.565 11.0669 96.7246 10.1544 85.1983 10.018C72.9039 9.87243 65.43 10.5155 54.1984 15.518C44.494 19.8402 39.2403 23.5639 32.1984 31.518C23.1667 41.7195 20.1547 49.7175 17.1984 63.018C13.4613 79.8306 14.5066 90.7627 20.1984 107.018C26.0346 123.686 32.3542 133.053 46.1984 144.018Z" stroke="#00B1D0" stroke-width="9"/>
<path d="M96.0341 88.5L97.5897 78.3653H87.8629V71.7886C87.8629 69.0159 89.2217 66.3133 93.578 66.3133H98V57.6847C98 57.6847 93.9872 57 90.1505 57C82.1401 57 76.9042 61.8541 76.9042 70.6413V78.3653H68V88.5H76.9042V113H87.8629V88.5H96.0341Z" fill="#171414"/>
</svg>
