<svg width="500" height="500" viewBox="0 0 500 500" fill="none" xmlns="http://www.w3.org/2000/svg">
<path fill-rule="evenodd" clip-rule="evenodd" d="M448.977 374.449C451.776 365.033 453.004 363.727 459.156 359.18C468.629 352.178 466.269 348.009 464.215 344.381C463.731 343.525 463.264 342.7 462.973 341.875C463.754 336.467 464.961 330.562 466.262 324.197C470.47 303.608 475.662 278.208 470.608 249.243C473.188 234.796 473.443 216.396 473.651 201.35C473.751 194.134 473.84 187.69 474.17 182.823C474.085 181.381 474.628 177.988 477.479 175.952C480.329 173.917 480.193 171.881 479.769 171.117C478.242 168.742 475.086 163.025 474.679 159.157C474.17 154.321 461.192 128.11 421.492 88.9193L415.639 82.0483L393.754 67.2883C390.191 64.8283 377.518 58.0251 355.327 50.4924C336.8 43.3669 321.82 37.5138 316.645 35.4779L301.885 32.1696C291.452 30.3034 266.614 26.0111 250.734 23.7717C242.534 22.3659 234.334 23.2251 230.105 23.6681C229.741 23.7063 229.406 23.7414 229.103 23.7717C224.014 24.2806 219.433 24.2806 213.834 23.7717C207.981 22.6742 197.395 22.9064 180.497 28.6069C175.407 30.3882 163.192 34.2054 155.049 35.2234C144.869 36.4958 123.747 41.5854 99.317 64.9979C88.1198 78.0274 74.9715 88.7496 69.797 92.482C64.0287 96.1296 51.5251 106.071 47.657 116.658C35.0913 139.321 33.4074 148.926 31.9637 157.161C31.7701 158.266 31.5808 159.346 31.3701 160.429C31.3701 168.572 27.8073 174.85 26.026 176.97C23.057 180.279 18.2897 192.443 22.9722 214.634C25.2116 234.382 22.548 251.873 20.9363 258.15C20.0032 263.495 18.9514 277.644 22.2087 291.488C24.6927 301.041 24.8812 302.274 25.7904 308.22C26.0921 310.193 26.4732 312.685 27.0439 316.172C28.8762 327.37 38.6653 345.099 43.3308 352.564C53.086 369.784 79.0093 408.092 104.661 423.564L133.163 442.142C136.98 444.347 147.465 449.369 158.866 451.812C171.896 455.884 181.939 460.295 185.332 461.991C192.458 464.621 208.999 469.727 218.161 469.117C227.322 468.506 246.238 472.425 254.552 474.461C259.556 475.903 271.398 478.176 278.727 475.733C286.26 474.308 292.385 474.291 294.505 474.461C300.613 474.037 317.765 470.593 337.513 460.21C360.315 447.18 378.23 437.646 384.338 434.507C391.209 430.435 407.394 419.747 417.166 409.568L430.399 397.607C433.199 395.486 439.408 390.074 441.851 385.392C442.797 382.436 444.792 380.082 446.446 378.128C447.642 376.718 448.659 375.516 448.977 374.449ZM411.822 144.142C409.192 145.584 403.577 146.331 402.152 137.78C394.008 104.952 365.252 69.833 324.025 57.8723C311.301 53.8006 283.766 45.6572 275.419 45.6572C267.072 45.6572 253.11 42.6034 247.172 41.0765C240.131 39.0406 222.385 36.0377 207.727 40.313C201.619 42.9596 187.538 44.9785 181.261 45.6572C175.492 46.0813 161.411 47.9475 151.232 52.0192C144.31 55.073 136.811 57.533 133.927 58.3813C129.092 59.6537 116.52 65.0488 104.916 76.4496C90.4101 90.7006 84.3025 94.7724 76.4136 99.862C72.3418 102.577 63.2314 109.532 59.3632 115.64C57.927 117.675 57.3351 118.583 56.6346 119.399C55.8455 120.318 54.9186 121.118 52.4922 123.274C43.7182 133.885 42.1429 141.387 40.9448 147.092C40.6487 148.502 40.3756 149.803 40.0225 151.013C38.7501 162.465 35.1873 172.899 30.8611 180.533C28.486 184.52 24.7026 196.362 28.5708 211.834C35.2891 227.918 34.7632 238.725 33.6604 242.118C33.1515 243.306 32.4389 247.462 33.6604 254.588C40.8516 296.536 44.4658 303.45 53.0127 319.801C53.1767 320.115 53.3424 320.432 53.5101 320.753C55.037 323.213 58.5489 329.457 60.3811 334.75C62.2134 340.043 67.0825 347.474 69.288 350.528C70.8998 352.564 74.3777 357.348 75.3956 360.198C77.2279 363.048 78.7039 364.1 79.2129 364.27C83.0301 367.069 91.479 374.449 94.7363 381.575C97.1892 385.499 99.6421 387.296 103.234 389.927C103.369 390.026 103.505 390.126 103.643 390.227C107.291 392.857 115.095 398.676 117.131 400.915C119.574 403.562 132.569 409.483 138.762 412.113L172.354 424.073C181.09 427.121 187.051 429.466 191.628 431.266C204.247 436.23 206.337 437.052 227.067 437.052C243.948 438.239 280.356 441.378 290.943 444.432C301.529 447.486 317.579 445.704 324.28 444.432C332.254 442.481 352.986 433.795 372.123 414.657C391.26 395.52 401.812 388.191 404.696 386.919C405.884 386.749 408.768 385.086 410.804 379.793C412.84 374.5 421.153 356.381 425.055 347.983C429.975 337.719 439.764 309.352 439.561 278C439.561 266.803 440.918 258.744 441.597 256.115C442.699 245.087 443.989 217.179 440.324 193.766C441.342 181.144 434.98 169.166 431.672 164.755C430.117 162.279 428.744 160.071 427.521 158.105C417.933 142.692 417.6 142.156 411.822 144.142Z" fill="#E4D832"/>
<path d="M286.491 264.608L290.819 236.33H263.756V217.979C263.756 210.243 267.536 202.702 279.657 202.702H291.961V178.626C291.961 178.626 280.796 176.716 270.121 176.716C247.833 176.716 233.265 190.26 233.265 214.778V236.33H208.49V264.608H233.265V332.968H263.756V264.608H286.491Z" fill="white"/>
</svg>
