<svg width="170" height="170" viewBox="0 0 170 170" fill="none" xmlns="http://www.w3.org/2000/svg">
<path d="M46.1984 144.018C59.1624 154.285 68.6984 159.018 85.1983 160.518C91.5295 161.094 95.1891 159.593 101.198 157.518C106.564 155.666 109.492 154.192 114.198 151.018C120.495 146.771 123.105 143.152 128.198 137.518C133.987 131.115 137.044 127.287 141.698 120.018C146.22 112.957 149.076 108.982 151.698 101.018C154.895 91.3098 154.909 85.2368 154.698 75.018C154.519 66.3488 154.578 61.197 151.698 53.018C148.102 42.8012 143.935 37.5979 136.198 30.018C128.848 22.8171 123.69 19.4912 114.198 15.518C103.565 11.0669 96.7246 10.1544 85.1983 10.018C72.9039 9.87243 65.43 10.5155 54.1984 15.518C44.494 19.8402 39.2403 23.5639 32.1984 31.518C23.1667 41.7195 20.1547 49.7175 17.1984 63.018C13.4613 79.8306 14.5066 90.7627 20.1984 107.018C26.0346 123.686 32.3542 133.053 46.1984 144.018Z" stroke="#00B1D0" stroke-width="9"/>
<path d="M86.5055 71.937C79.5531 71.937 73.9453 77.5461 73.9453 84.5C73.9453 91.4539 79.5531 97.063 86.5055 97.063C93.4578 97.063 99.0656 91.4539 99.0656 84.5C99.0656 77.5461 93.4578 71.937 86.5055 71.937ZM86.5055 92.6676C82.0127 92.6676 78.3397 89.0047 78.3397 84.5C78.3397 79.9953 82.0017 76.3324 86.5055 76.3324C91.0092 76.3324 94.6712 79.9953 94.6712 84.5C94.6712 89.0047 90.9983 92.6676 86.5055 92.6676V92.6676ZM102.509 71.4231C102.509 73.0523 101.197 74.3534 99.5794 74.3534C97.9506 74.3534 96.6498 73.0413 96.6498 71.4231C96.6498 69.8049 97.9616 68.4929 99.5794 68.4929C101.197 68.4929 102.509 69.8049 102.509 71.4231ZM110.828 74.3971C110.642 70.4719 109.746 66.9949 106.871 64.1303C104.007 61.2656 100.53 60.369 96.6061 60.1722C92.5615 59.9426 80.4385 59.9426 76.3939 60.1722C72.4805 60.3581 69.0043 61.2547 66.1293 64.1193C63.2544 66.984 62.3689 70.461 62.1722 74.3862C61.9426 78.4317 61.9426 90.5573 62.1722 94.6029C62.358 98.5281 63.2544 102.005 66.1293 104.87C69.0043 107.734 72.4695 108.631 76.3939 108.828C80.4385 109.057 92.5615 109.057 96.6061 108.828C100.53 108.642 104.007 107.745 106.871 104.87C109.735 102.005 110.631 98.5281 110.828 94.6029C111.057 90.5573 111.057 78.4427 110.828 74.3971V74.3971ZM105.603 98.9436C104.75 101.087 103.099 102.738 100.946 103.601C97.7211 104.881 90.0691 104.585 86.5055 104.585C82.9418 104.585 75.2789 104.87 72.0651 103.601C69.9225 102.749 68.2719 101.098 67.4083 98.9436C66.1293 95.7181 66.4245 88.0644 66.4245 84.5C66.4245 80.9356 66.1403 73.2709 67.4083 70.0564C68.261 67.9134 69.9116 66.2624 72.0651 65.3986C75.2898 64.1193 82.9418 64.4145 86.5055 64.4145C90.0691 64.4145 97.732 64.1303 100.946 65.3986C103.088 66.2514 104.739 67.9024 105.603 70.0564C106.882 73.2819 106.586 80.9356 106.586 84.5C106.586 88.0644 106.882 95.7291 105.603 98.9436Z" fill="#171414"/>
</svg>
