<svg width="500" height="500" viewBox="0 0 500 500" fill="none" xmlns="http://www.w3.org/2000/svg">
<path d="M252.006 219.116C232.888 219.116 217.467 234.541 217.467 253.664C217.467 272.787 232.888 288.211 252.006 288.211C271.125 288.211 286.546 272.787 286.546 253.664C286.546 234.541 271.125 219.116 252.006 219.116ZM252.006 276.124C239.651 276.124 229.551 266.052 229.551 253.664C229.551 241.276 239.621 231.203 252.006 231.203C264.391 231.203 274.462 241.276 274.462 253.664C274.462 266.052 264.361 276.124 252.006 276.124V276.124ZM296.015 217.703C296.015 222.183 292.408 225.761 287.959 225.761C283.48 225.761 279.903 222.153 279.903 217.703C279.903 213.253 283.51 209.645 287.959 209.645C292.408 209.645 296.015 213.253 296.015 217.703ZM318.892 225.881C318.381 215.087 315.916 205.526 308.01 197.648C300.134 189.77 290.574 187.305 279.783 186.764C268.66 186.132 235.323 186.132 224.2 186.764C213.438 187.275 203.879 189.74 195.973 197.618C188.067 205.496 185.632 215.057 185.091 225.851C184.46 236.976 184.46 270.321 185.091 281.446C185.602 292.24 188.067 301.802 195.973 309.68C203.879 317.557 213.408 320.023 224.2 320.564C235.323 321.195 268.66 321.195 279.783 320.564C290.574 320.053 300.134 317.587 308.01 309.68C315.886 301.802 318.351 292.24 318.892 281.446C319.523 270.321 319.523 237.006 318.892 225.881V225.881ZM304.523 293.383C302.178 299.276 297.639 303.816 291.717 306.192C282.849 309.71 261.806 308.898 252.006 308.898C242.207 308.898 221.134 309.68 212.296 306.192C206.404 303.846 201.865 299.306 199.49 293.383C195.973 284.513 196.785 263.466 196.785 253.664C196.785 243.862 196.003 222.784 199.49 213.945C201.835 208.051 206.374 203.511 212.296 201.136C221.164 197.618 242.207 198.43 252.006 198.43C261.806 198.43 282.879 197.648 291.717 201.136C297.609 203.481 302.148 208.021 304.523 213.945C308.04 222.815 307.228 243.862 307.228 253.664C307.228 263.466 308.04 284.543 304.523 293.383Z" fill="white"/>
<path fill-rule="evenodd" clip-rule="evenodd" d="M448.977 374.101C451.776 364.695 453.004 363.39 459.156 358.847C468.629 351.852 466.269 347.687 464.215 344.062C463.731 343.208 463.264 342.384 462.973 341.56C463.754 336.157 464.961 330.258 466.262 323.899C470.47 303.33 475.662 277.955 470.608 249.019C473.188 234.586 473.443 216.204 473.651 201.174C473.751 193.965 473.84 187.527 474.17 182.665C474.085 181.225 474.628 177.835 477.479 175.801C480.329 173.767 480.193 171.733 479.769 170.971C478.242 168.598 475.086 162.886 474.679 159.022C474.17 154.191 461.192 128.006 421.492 88.854L415.639 81.9898L393.754 67.2444C390.191 64.7868 377.518 57.9904 355.327 50.4652C336.8 43.3467 321.82 37.4994 316.645 35.4655L301.885 32.1605C291.452 30.2962 266.614 26.0081 250.734 23.7709C242.534 22.3665 234.334 23.2249 230.105 23.6675C229.741 23.7056 229.406 23.7407 229.103 23.7709C224.014 24.2793 219.433 24.2793 213.834 23.7709C207.981 22.6745 197.395 22.9065 180.497 28.6013C175.407 30.3809 163.192 34.1943 155.049 35.2113C144.869 36.4824 123.747 41.567 99.317 64.9563C88.1198 77.9729 74.9715 88.6845 69.797 92.4132C64.0287 96.0572 51.5251 105.989 47.657 116.565C35.0913 139.206 33.4074 148.801 31.9637 157.028C31.7701 158.132 31.5808 159.211 31.3701 160.293C31.3701 168.428 27.8073 174.699 26.026 176.818C23.057 180.123 18.2897 192.275 22.9722 214.444C25.2116 234.172 22.548 251.647 20.9363 257.918C20.0032 263.256 18.9514 277.392 22.2087 291.222C24.6927 300.766 24.8812 301.998 25.7904 307.938C26.0921 309.909 26.4732 312.398 27.0439 315.882C28.8762 327.068 38.6653 344.78 43.3308 352.237C53.086 369.44 79.0093 407.71 104.661 423.168L133.163 441.727C136.98 443.93 147.465 448.947 158.866 451.387C171.896 455.455 181.939 459.862 185.332 461.557C192.458 464.184 208.999 469.285 218.161 468.675C227.322 468.065 246.238 471.98 254.552 474.014C259.556 475.455 271.398 477.726 278.727 475.285C286.26 473.861 292.385 473.844 294.505 474.014C300.613 473.59 317.765 470.15 337.513 459.777C360.315 446.76 378.23 437.235 384.338 434.1C391.209 430.032 407.394 419.354 417.166 409.185L430.399 397.236C433.199 395.118 439.408 389.711 441.851 385.033C442.797 382.081 444.792 379.728 446.446 377.777C447.642 376.367 448.659 375.167 448.977 374.101ZM411.822 144.022C409.192 145.463 403.577 146.208 402.152 137.666C394.008 104.871 365.252 69.7867 324.025 57.8378C311.301 53.7701 283.766 45.6347 275.419 45.6347C267.072 45.6347 253.11 42.584 247.172 41.0586C240.131 39.0247 222.385 36.0248 207.727 40.2959C201.619 42.9399 187.538 44.9568 181.261 45.6347C175.492 46.0584 161.411 47.9228 151.232 51.9905C144.31 55.0413 136.811 57.4988 133.927 58.3463C129.092 59.6174 116.52 65.0071 104.916 76.3967C90.4101 90.6336 84.3025 94.7013 76.4136 99.7859C72.3418 102.498 63.2314 109.447 59.3632 115.548C57.927 117.581 57.3351 118.489 56.6346 119.304C55.8455 120.221 54.9186 121.02 52.4922 123.175C43.7182 133.775 42.1429 141.269 40.9448 146.969C40.6487 148.378 40.3756 149.677 40.0225 150.886C38.7501 162.327 35.1873 172.75 30.8611 180.377C28.486 184.36 24.7026 196.19 28.5708 211.648C35.2891 227.715 34.7632 238.511 33.6604 241.901C33.1515 243.087 32.4389 247.24 33.6604 254.358C40.8516 296.265 44.4658 303.173 53.0127 319.508C53.1767 319.821 53.3424 320.138 53.5101 320.458C55.037 322.916 58.5489 329.153 60.3811 334.441C62.2134 339.729 67.0825 347.153 69.288 350.203C70.8998 352.237 74.3777 357.017 75.3956 359.864C77.2279 362.712 78.7039 363.762 79.2129 363.932C83.0301 366.728 91.479 374.101 94.7363 381.22C97.1892 385.14 99.6421 386.935 103.234 389.564C103.369 389.663 103.505 389.762 103.643 389.863C107.291 392.491 115.095 398.304 117.131 400.541C119.574 403.185 132.569 409.1 138.762 411.727L172.354 423.676C181.09 426.721 187.051 429.063 191.628 430.862C204.247 435.82 206.337 436.642 227.067 436.642C243.948 437.828 280.356 440.964 290.943 444.015C301.529 447.065 317.579 445.286 324.28 444.015C332.254 442.066 352.986 433.388 372.123 414.27C391.26 395.151 401.812 387.83 404.696 386.558C405.884 386.389 408.768 384.728 410.804 379.44C412.84 374.152 421.153 356.051 425.055 347.661C429.975 337.407 439.764 309.069 439.561 277.748C439.561 266.561 440.918 258.511 441.597 255.884C442.699 244.867 443.989 216.986 440.324 193.597C441.342 180.987 434.98 169.021 431.672 164.615C430.117 162.141 428.744 159.935 427.521 157.971C417.933 142.573 417.6 142.038 411.822 144.022Z" fill="#E4D832"/>
</svg>
